# xmcd
#
# Track frame offsets:
#	150
#	21405
#	36787
#	53612
#	74330
#	104745
#	125070
#	151977
#	168655
#	182697
#
# Disc length: 2722 seconds
#
# Revision: 1
# Processed by: cddbd v1.5.1PL0 Copyright (c) Steve Scherf et al.
# Submitted via: audiograbber 1.82.02
#
DISCID=8c0aa00a
DTITLE=Fiona Boyes - Live In Atlanta
DYEAR=2003
DGENRE=Blues
TTITLE0=I'll Be Your Fool
TTITLE1=Ten Foot Tall (and Bullet Proof)
TTITLE2=Women Be Wise
TTITLE3=Stranger In Your Eyes
TTITLE4=Love Changing Blues
TTITLE5=Sailing
TTITLE6=Run Here
TTITLE7=Travelling Mood
TTITLE8=My Baby Cooks
TTITLE9=Ember
EXTD=
EXTT0=
EXTT1=
EXTT2=
EXTT3=
EXTT4=
EXTT5=
EXTT6=
EXTT7=
EXTT8=
EXTT9=
PLAYORDER=
